<?xml version="1.0" encoding="UTF-8"?>
<svg id="Layer_1" data-name="Layer 1" xmlns="http://www.w3.org/2000/svg" viewBox="0 0 202.69 74">
  <defs>
    <style>
      .cls-1 {
        fill: #fff;
      }

      .cls-2 {
        fill: none;
        stroke: #ffd700;
        stroke-linecap: round;
        stroke-linejoin: round;
        stroke-width: 4.52px;
      }
    </style>
  </defs>
  <g>
    <path class="cls-1" d="M1,71.51V20.46h32.26v9.43H10.94v12.6h19.87v9.14H11.01v19.87H1Z"/>
    <path class="cls-1" d="M37.89,71.51V19.38h9.58v52.13h-9.58Z"/>
    <path class="cls-1" d="M90.25,53.79c0,10.87-7.99,18.79-18.58,18.79s-18.58-7.92-18.58-18.79,7.99-18.79,18.58-18.79,18.58,7.85,18.58,18.79ZM80.67,53.79c0-6.7-4.32-10.08-9-10.08s-9,3.38-9,10.08,4.32,10.08,9,10.08,9-3.38,9-10.08Z"/>
    <path class="cls-1" d="M125.06,36.08l7.63,22.83,6.55-22.83h9.5l-11.09,35.43h-9.58l-8.28-24.19-8.14,24.19h-9.72l-11.3-35.43h10.08l6.55,22.75,7.71-22.75h10.08Z"/>
  </g>
  <g>
    <rect class="cls-2" x="157.27" y="5.07" width="40.69" height="40.69" rx="4.52" ry="4.52"/>
    <path class="cls-2" d="M175.36,18.64h9.04c2.5,0,4.52-2.02,4.52-4.52V5.07"/>
    <circle class="cls-2" cx="170.84" cy="18.64" r="4.52"/>
    <path class="cls-2" d="M166.31,45.76v-9.04c0-2.5,2.02-4.52,4.52-4.52h9.04"/>
    <circle class="cls-2" cx="184.4" cy="32.2" r="4.52"/>
  </g>
</svg>
